<svg width="42" height="42" viewBox="0 0 42 42" fill="none" xmlns="http://www.w3.org/2000/svg">
<path d="M20.187 2.50216C20.4429 1.71459 21.5571 1.71458 21.813 2.50216L25.5229 13.92C25.6373 14.2722 25.9655 14.5106 26.3359 14.5106H38.3413C39.1694 14.5106 39.5137 15.5703 38.8437 16.0571L29.1312 23.1137C28.8315 23.3313 28.7062 23.7172 28.8206 24.0694L32.5305 35.4872C32.7864 36.2748 31.885 36.9297 31.215 36.4429L21.5025 29.3863C21.2029 29.1687 20.7971 29.1687 20.4975 29.3863L10.785 36.4429C10.115 36.9297 9.21361 36.2748 9.46951 35.4872L13.1794 24.0694C13.2938 23.7172 13.1685 23.3313 12.8688 23.1137L3.15628 16.0571C2.48633 15.5703 2.83063 14.5106 3.65874 14.5106H15.6641C16.0345 14.5106 16.3627 14.2722 16.4771 13.92L20.187 2.50216Z" fill="#FF9200"/>
</svg>
